<svg xmlns="http://www.w3.org/2000/svg" viewBox="0 0 1024 1024" xml:space="preserve">
  <path d="M731.42981 741.548462c-23.809876 12.842163-48.921204 20.436523-75.434571 22.476807-29.143615 2.242614-57.60437-1.985108-84.487243-13.693543-62.219941-27.098999-99.925629-74.503906-114.703064-140.460693-.690979-3.083924-2.391205-6.251526-.202301-10.612122 3.928833 7.26471 10.299713 11.489746 14.791504 17.303467 5.768463 7.466064 13.142761 10.745239 22.13272 10.078064 6.07306-.450745 8.925843 1.597168 11.489777 7.2724 20.098358 44.487182 53.523895 73.837829 100.729706 87.117859 1.895447.533325 3.778747 1.317566 6.093628.189026-1.098267-2.734436-3.173218-4.620118-5.15332-6.552185-29.098145-28.391968-57.700196-57.279786-86.338868-86.133118-43.428833-43.754395-87.016784-87.35083-130.565429-130.986145-1.342591-1.345276-2.540314-3.739197-4.803528-2.917084-2.678284.972931-1.591858 3.745819-1.591736 5.740967.00528 85.488556.069977 170.977081.12912 256.465607.003113 4.497558-.113495 9.000793.075104 13.490905.149444 3.559265-.978486 5.061341-4.835785 4.953064-9.158387-.256897-18.328614-.06842-27.493683-.119751-6.136414-.034424-6.461609-.383545-6.462616-6.554016-.00705-43.660888.011566-87.321777-.003937-130.982666-.042114-118.485596-.099487-236.971161-.126984-355.456726-.000488-2.086731-.755676-4.782349 1.681824-5.83667 3.020691-1.30661 4.99527 1.29776 6.794617 3.070038 14.24527 14.031036 28.419464 28.134796 42.552368 42.279297 91.863098 91.938385 183.701447 183.901459 275.568207 275.836212 25.202881 25.221497 50.473572 50.375061 75.719604 75.553406 1.049073 1.046203 2.164063 2.026428 3.247925 3.037048 2.822449-.700256 4.156433-2.929626 5.718384-4.78009 18.245605-21.617066 29.920959-46.347107 34.460693-74.277283 1.062683-6.537842 1.168274-13.283081 1.172974-19.933349.082825-116.652466.080688-233.304993.099975-349.957505.001282-7.523376.012757-7.520843 7.742127-7.5177 8.165466.003342 16.330994-.001862 24.49646.002472 6.234009.003311 6.316955.057877 6.318054 6.509628.009033 55.159912.00824 110.319855.003601 165.479767-.005127 61.325867-.190429 122.652344.034302 183.977356.150635 41.113159-12.394653 77.916992-36.496216 110.903626-16.639953 22.774475-37.381897 41.059387-62.353393 55.03363M592.183044 573.32782c-5.162048-5.19867-10.310119-10.411377-15.488342-15.593872-61.2229-61.273682-122.439422-122.553681-183.711914-183.777741-2.749176-2.747009-5.192383-5.967437-8.908966-7.81842-1.145966 1.94461-.708801 3.809021-.713593 5.570343-.051208 18.825043.128815 37.652862-.159118 56.473724-.082794 5.412262 1.534027 9.242462 5.399475 13.092072 51.09555 50.886291 102.053039 101.911377 152.986389 152.960205 23.64502 23.698669 47.131775 47.555115 70.749024 71.281555 17.275024 17.354919 34.725585 34.536011 51.911438 51.978272 3.717285 3.772705 7.024902 5.350036 12.614257 3.844482 13.764222-3.707459 26.901551-8.690125 39.187561-15.905457 1.413941-.830261 2.938599-1.562988 4.070252-3.630066C677.707825 659.197693 635.204163 616.5 592.183044 573.32782z"/>
  <path d="M354.818359 227.660492c59.624695-18.230484 115.938416-11.6026 167.681946 22.5383 47.388001 31.267059 75.960816 75.620391 84.908386 132.113189 2.408631 15.207977 2.383606 12.772736-10.957214 12.947632-7.163635.093933-14.337219-.174469-21.491089.10733-4.132141.162781-5.557434-1.651611-6.028076-5.425689-5.247192-42.075135-25.570129-75.618836-58.782715-101.298767-24.417724-18.879761-52.299805-29.48758-83.282043-31.553406-47.698181-3.180481-88.602387 12.523895-122.405304 45.712982-26.804718 26.317963-42.19574 58.613129-45.40567 96.410736-.636475 7.494721-.74646 14.963898-.74823 22.454376-.027497 115.139771-.038361 230.279541-.056824 345.419312-.001312 8.252136-.014771 8.249573-8.193787 8.236938-7.998062-.012329-16.007095-.275329-23.990188.065857-5.005616.213928-6.527573-1.393554-6.515305-6.495361.15239-63.317993.071915-126.636536.072632-189.954895.000626-55.986878.0009-111.973816.050125-167.960663.065933-74.977905 47.676956-146.88208 116.629471-176.129547 5.970886-2.532654 12.085297-4.727051 18.513885-7.188324zM666.822083 387c.018798-51.982574.037048-103.465179.060974-154.947769.001281-2.665543.108276-5.331986.06488-7.996353-.050598-3.106125 1.227234-4.454804 4.496033-4.408387 9.828003.139588 19.659973.112214 29.488952.009675 3.169678-.033066 4.514038 1.150894 4.444397 4.389755-.132507 6.161178-.029663 12.327392-.027099 18.491516.016357 39.473709-.300965 78.951279.155273 118.419907.354126 30.631469-.350281 61.255798.010986 91.876708.316102 26.794526.004761 53.590638.071229 80.380158.051208 20.628235.655944 41.285583-.138062 61.925598-.16571 4.306885.351868 8.637207.464783 12.959107.047058 1.802856.175964 3.694213-1.332581 5.196655-2.596924.279968-3.763428-1.882691-5.223694-3.298889-10.044677-9.741272-19.918029-19.660523-30.038391-29.321473-2.732971-2.608886-2.49646-5.620605-2.49707-8.739379-.009766-51.148804.003174-102.297577.009033-153.44635.00116-10.33017-.005798-20.660309-.009643-31.490479z"/>
</svg>